<svg xmlns="http://www.w3.org/2000/svg" xmlns:xlink="http://www.w3.org/1999/xlink" width="1440" zoomAndPan="magnify" viewBox="0 0 1080 575.249982" height="767" preserveAspectRatio="xMidYMid meet" version="1.0"><defs><filter x="0%" y="0%" width="100%" height="100%" id="15a8570382"><feColorMatrix values="0 0 0 0 1 0 0 0 0 1 0 0 0 0 1 0 0 0 1 0" color-interpolation-filters="sRGB"/></filter><clipPath id="a9f614cd34"><path d="M 0.703125 0 L 1079.296875 0 L 1079.296875 556 L 0.703125 556 Z M 0.703125 0 " clip-rule="nonzero"/></clipPath><clipPath id="0e73fcf17c"><path d="M 0.703125 0 L 1079.296875 0 L 1079.296875 344 L 0.703125 344 Z M 0.703125 0 " clip-rule="nonzero"/></clipPath><mask id="51a0fab640"><g filter="url(#15a8570382)"><rect x="-108" width="1296" fill="#000000" y="-57.524998" height="690.299978" fill-opacity="0.3"/></g></mask><clipPath id="9a3e6cea17"><path d="M 0.703125 0 L 1079.296875 0 L 1079.296875 343.953125 L 0.703125 343.953125 Z M 0.703125 0 " clip-rule="nonzero"/></clipPath><clipPath id="d04a6cc238"><rect x="0" width="1080" y="0" height="344"/></clipPath><clipPath id="0c73d09c6b"><path d="M 604 564 L 615 564 L 615 574.5 L 604 574.5 Z M 604 564 " clip-rule="nonzero"/></clipPath></defs><g clip-path="url(#a9f614cd34)"><path fill="#7de3f4" d="M -10.453125 204.652344 C -7.683594 186.738281 5.007812 171.839844 19.242188 160.585938 C 58.339844 129.613281 113.230469 119.753906 160.6875 135.164062 C 208.148438 150.578125 255.144531 167.871094 268.53125 215.894531 C 273.109375 232.285156 274.917969 249.417969 280.640625 265.445312 C 295.652344 307.4375 339.414062 337.367188 384.035156 336.15625 C 441.167969 334.613281 480.015625 291.296875 527.375 266.289062 C 561.714844 248.160156 612.886719 265.152344 631.664062 308.324219 C 648.535156 347.085938 621.082031 388.117188 612.222656 425.269531 C 603.148438 463.351562 618.078125 501.035156 649.097656 524.980469 C 680.367188 549.144531 727.84375 561.273438 766.578125 551.796875 C 804.054688 542.628906 829.59375 514.460938 858.011719 490.480469 C 894.835938 459.40625 953.460938 458.03125 998.597656 463.929688 C 1020.160156 466.75 1042.207031 471.289062 1063.410156 466.484375 C 1100.285156 458.132812 1106.238281 427.226562 1106.605469 394.746094 C 1107.117188 349.734375 1106.621094 304.710938 1105.773438 259.71875 C 1104.097656 171.160156 1100.964844 82.617188 1100.964844 -5.976562 L -10.4375 -5.976562 L -10.4375 204.648438 Z M -10.453125 204.652344 " fill-opacity="1" fill-rule="nonzero"/></g><g clip-path="url(#0e73fcf17c)"><g mask="url(#51a0fab640)"><g transform="matrix(1, 0, 0, 1, 0.000000000000000222, 0)"><g clip-path="url(#d04a6cc238)"><g clip-path="url(#9a3e6cea17)"><path fill="#115560" d="M 1142.867188 228.679688 C 1126.246094 285.355469 1065.296875 316.210938 1008.101562 331.140625 C 970.957031 340.835938 932.210938 346.636719 894.125 341.75 C 856.035156 336.859375 818.496094 320.386719 793.445312 291.320312 C 771.375 265.699219 760.191406 232.125 738.011719 206.589844 C 706.941406 170.777344 657.277344 155.152344 609.851562 156.078125 C 562.425781 157.007812 516.558594 172.632812 472.679688 190.648438 C 447.335938 201.054688 421.289062 212.539062 393.886719 211.726562 C 361.492188 210.765625 332.046875 192.636719 307.511719 171.472656 C 282.976562 150.328125 261.480469 125.554688 234.972656 106.925781 C 162.480469 55.953125 55.171875 61.953125 -11.199219 120.664062 L -11.199219 -5.992188 L 1121.21875 -5.992188 Z M 1142.867188 228.679688 " fill-opacity="1" fill-rule="nonzero"/></g></g></g></g></g><path fill="#7de3f4" d="M 467.554688 390.683594 C 469.53125 397.894531 472.996094 404.871094 477.359375 411.035156 C 495.027344 436.023438 523.90625 459.042969 556.136719 446.546875 C 580.6875 437.035156 598.96875 409.941406 609.21875 386.707031 C 616.964844 369.160156 617.878906 349.621094 607.644531 332.734375 C 590.191406 303.933594 553.433594 300.320312 525.28125 314.222656 C 506.554688 323.46875 487.511719 338.019531 474.191406 354.179688 C 465.265625 365.03125 464.15625 378.207031 467.554688 390.683594 Z M 467.554688 390.683594 " fill-opacity="1" fill-rule="nonzero"/><path fill="#115560" d="M 925.183594 289.558594 C 925.183594 286.210938 922.878906 283.90625 919.53125 283.90625 C 922.878906 283.90625 925.183594 281.601562 925.183594 278.253906 C 925.183594 281.601562 927.492188 283.90625 930.839844 283.90625 C 927.492188 283.90625 925.183594 286.210938 925.183594 289.558594 Z M 925.183594 289.558594 " fill-opacity="1" fill-rule="nonzero"/><path fill="#115560" d="M 964.03125 329.910156 C 964.03125 326.5625 961.730469 324.257812 958.375 324.257812 C 961.730469 324.257812 964.03125 321.953125 964.03125 318.609375 C 964.03125 321.953125 966.335938 324.257812 969.691406 324.257812 C 966.359375 324.257812 964.03125 326.5625 964.03125 329.910156 Z M 964.03125 329.910156 " fill-opacity="1" fill-rule="nonzero"/><path fill="#115560" d="M 984.648438 228.507812 C 984.648438 225.160156 982.34375 222.855469 978.996094 222.855469 C 982.34375 222.855469 984.648438 220.554688 984.648438 217.203125 C 984.648438 220.554688 986.957031 222.855469 990.304688 222.855469 C 986.957031 222.855469 984.648438 225.160156 984.648438 228.507812 Z M 984.648438 228.507812 " fill-opacity="1" fill-rule="nonzero"/><path fill="#115560" d="M 825.789062 265.808594 C 825.789062 262.460938 823.484375 260.160156 820.128906 260.160156 C 823.484375 260.160156 825.789062 257.855469 825.789062 254.507812 C 825.789062 257.855469 828.089844 260.160156 831.445312 260.160156 C 828.089844 260.160156 825.789062 262.480469 825.789062 265.808594 Z M 825.789062 265.808594 " fill-opacity="1" fill-rule="nonzero"/><path fill="#115560" d="M 885.023438 202.636719 C 885.023438 199.292969 882.714844 196.988281 879.367188 196.988281 C 882.714844 196.988281 885.023438 194.683594 885.023438 191.335938 C 885.023438 194.683594 887.328125 196.988281 890.679688 196.988281 C 887.328125 196.988281 885.023438 199.308594 885.023438 202.636719 Z M 885.023438 202.636719 " fill-opacity="1" fill-rule="nonzero"/><path fill="#115560" d="M 851.234375 238.78125 C 851.234375 232.800781 847.097656 228.671875 841.113281 228.671875 C 847.097656 228.671875 851.234375 224.546875 851.234375 218.5625 C 851.234375 224.546875 855.359375 228.671875 861.351562 228.671875 C 855.375 228.671875 851.234375 232.800781 851.234375 238.78125 Z M 851.234375 238.78125 " fill-opacity="1" fill-rule="nonzero"/><path fill="#115560" d="M 937.4375 222.855469 C 937.4375 216.875 933.3125 212.746094 927.320312 212.746094 C 933.3125 212.746094 937.4375 208.621094 937.4375 202.636719 C 937.4375 208.621094 941.574219 212.746094 947.558594 212.746094 C 941.589844 212.746094 937.4375 216.875 937.4375 222.855469 Z M 937.4375 222.855469 " fill-opacity="1" fill-rule="nonzero"/><path fill="#115560" d="M 969.691406 273.582031 C 969.691406 268.992188 966.5 265.808594 961.910156 265.808594 C 966.523438 265.808594 969.691406 262.628906 969.691406 258.039062 C 969.691406 262.644531 972.875 265.808594 977.46875 265.808594 C 972.875 265.808594 969.691406 268.992188 969.691406 273.582031 Z M 969.691406 273.582031 " fill-opacity="1" fill-rule="nonzero"/><path fill="#115560" d="M 900.117188 243.421875 C 900.117188 239.445312 897.367188 236.710938 893.398438 236.710938 C 897.382812 236.710938 900.117188 233.976562 900.117188 230 C 900.117188 233.976562 902.855469 236.710938 906.835938 236.710938 C 902.871094 236.695312 900.117188 239.445312 900.117188 243.421875 Z M 900.117188 243.421875 " fill-opacity="1" fill-rule="nonzero"/><path fill="#115560" d="M 644.597656 538.042969 C 644.597656 535.042969 646.671875 532.972656 649.675781 532.972656 C 646.671875 532.972656 644.597656 530.898438 644.597656 527.902344 C 644.597656 530.898438 642.523438 532.972656 639.523438 532.972656 C 642.523438 532.972656 644.597656 535.042969 644.597656 538.042969 Z M 644.597656 538.042969 " fill-opacity="1" fill-rule="nonzero"/><g clip-path="url(#0c73d09c6b)"><path fill="#115560" d="M 609.695312 574.285156 C 609.695312 571.285156 611.769531 569.214844 614.773438 569.214844 C 611.769531 569.214844 609.695312 567.140625 609.695312 564.144531 C 609.695312 567.140625 607.625 569.214844 604.621094 569.214844 C 607.625 569.214844 609.695312 571.285156 609.695312 574.285156 Z M 609.695312 574.285156 " fill-opacity="1" fill-rule="nonzero"/></g><path fill="#115560" d="M 591.183594 483.207031 C 591.183594 480.207031 593.257812 478.136719 596.261719 478.136719 C 593.257812 478.136719 591.183594 476.0625 591.183594 473.066406 C 591.183594 476.0625 589.109375 478.136719 586.109375 478.136719 C 589.109375 478.136719 591.183594 480.207031 591.183594 483.207031 Z M 591.183594 483.207031 " fill-opacity="1" fill-rule="nonzero"/><path fill="#115560" d="M 733.894531 516.714844 C 733.894531 513.714844 735.96875 511.644531 738.96875 511.644531 C 735.96875 511.644531 733.894531 509.574219 733.894531 506.574219 C 733.894531 509.574219 731.820312 511.644531 728.816406 511.644531 C 731.820312 511.644531 733.894531 513.714844 733.894531 516.714844 Z M 733.894531 516.714844 " fill-opacity="1" fill-rule="nonzero"/><path fill="#115560" d="M 680.695312 459.972656 C 680.695312 456.972656 682.769531 454.902344 685.769531 454.902344 C 682.769531 454.902344 680.695312 452.832031 680.695312 449.832031 C 680.695312 452.832031 678.621094 454.902344 675.617188 454.902344 C 678.621094 454.902344 680.695312 456.972656 680.695312 459.972656 Z M 680.695312 459.972656 " fill-opacity="1" fill-rule="nonzero"/><path fill="#115560" d="M 711.035156 492.4375 C 711.035156 487.066406 714.75 483.355469 720.125 483.355469 C 714.75 483.355469 711.035156 479.644531 711.035156 474.273438 C 711.035156 479.644531 707.320312 483.355469 701.945312 483.355469 C 707.320312 483.355469 711.035156 487.066406 711.035156 492.4375 Z M 711.035156 492.4375 " fill-opacity="1" fill-rule="nonzero"/><path fill="#115560" d="M 633.582031 478.136719 C 633.582031 472.765625 637.300781 469.054688 642.675781 469.054688 C 637.300781 469.054688 633.582031 465.34375 633.582031 459.972656 C 633.582031 465.34375 629.867188 469.054688 624.492188 469.054688 C 629.867188 469.054688 633.582031 472.765625 633.582031 478.136719 Z M 633.582031 478.136719 " fill-opacity="1" fill-rule="nonzero"/><path fill="#115560" d="M 604.621094 523.707031 C 604.621094 519.582031 607.472656 516.730469 611.605469 516.730469 C 607.472656 516.730469 604.621094 513.882812 604.621094 509.753906 C 604.621094 513.882812 601.765625 516.730469 597.621094 516.730469 C 601.765625 516.714844 604.621094 519.582031 604.621094 523.707031 Z M 604.621094 523.707031 " fill-opacity="1" fill-rule="nonzero"/><path fill="#115560" d="M 667.109375 496.597656 C 667.109375 493.035156 669.582031 490.5625 673.148438 490.5625 C 669.582031 490.5625 667.109375 488.09375 667.109375 484.53125 C 667.109375 488.09375 664.636719 490.5625 661.070312 490.5625 C 664.652344 490.5625 667.109375 493.035156 667.109375 496.597656 Z M 667.109375 496.597656 " fill-opacity="1" fill-rule="nonzero"/></svg>